<svg width="32" height="39" viewBox="0 0 32 39" fill="none" xmlns="http://www.w3.org/2000/svg">
<path fill-rule="evenodd" clip-rule="evenodd" d="M13.0699 0L15.2897 1.38208C18.1052 3.10909 20.2681 5.78179 21.4206 8.95796C21.8117 8.04388 22.2768 7.15723 22.7085 6.26143L24.4368 8.05485C28.3162 12.0804 32 18.1134 32 23.9726C32 31.83 27.3313 36.8117 19.8615 37.6728L17.4126 37.9543L17.9482 35.4589C18.3657 33.5064 18.4415 32.2304 18.3534 31.3364C18.2477 30.2121 17.7333 29.3291 17.092 28.4516C16.4789 27.6106 15.8711 26.7678 15.3848 25.8373C13.3852 27.4772 12.6101 28.958 12.3616 30.1774C12.0445 31.7386 12.4938 33.3346 13.3148 35.0384L14.7629 38.0439L11.546 37.6728C7.00765 37.1499 2.5363 34.0037 0.774541 29.4132C-1.0665 24.6106 0.235443 18.7989 6.18315 13.4497C10.1295 9.90129 12.2189 5.29982 13.0699 0ZM15.4165 6.03291C14.0741 9.94516 11.4966 13.5101 8.48929 16.2139C3.36081 20.8263 2.90099 25.0695 4.04966 28.0603C4.90411 30.2907 6.74867 32.1243 8.93502 33.1646C8.67958 31.9326 8.67239 30.6591 8.91388 29.4242C9.48821 26.5978 11.4473 23.9488 15.2104 21.5082L17.1078 20.2779L17.8161 22.4808C18.4362 24.4114 19.7223 25.777 20.7282 27.4717C21.8346 29.3364 22.046 31.4753 21.8205 33.6106C26.4364 32.4132 28.4765 28.7806 28.4765 23.9726C28.4765 19.9104 26.1157 15.9251 23.7726 12.8099C22.8071 15.0549 20.7723 15.8446 18.7868 16.8757V13.9177C18.7868 11.415 17.8055 8.36381 15.4165 6.03474V6.03291Z" fill="white"/>
</svg>
